<?xml version="1.0" encoding="UTF-8"?>
<svg viewBox="0 0 259 69" version="1.1" xmlns="http://www.w3.org/2000/svg" xmlns:xlink="http://www.w3.org/1999/xlink">
    <title>logo-delftechniek-large</title>
    <g id="Symbols" stroke="none" stroke-width="1" fill="none" fill-rule="evenodd">
        <g id="Desktop-Header-Account" transform="translate(-135.000000, 0.000000)">
            <g id="Group" transform="translate(135.000000, 0.000000)">
                <g id="Group-47" transform="translate(-0.000276, 0.000069)">
                    <path d="M51.802026,28.228866 L60.916236,28.228866 C66.926136,28.228866 69.048576,32.672466 69.048576,37.219566 C69.048576,42.749226 66.119526,46.257186 59.830866,46.257186 L51.802026,46.257186 L51.802026,28.228866 Z M57.356526,41.637636 L59.529336,41.637636 C62.986926,41.637636 63.492696,38.835546 63.492696,37.142976 C63.492696,36.007236 63.138036,32.849106 59.124306,32.849106 L57.356526,32.849106 L57.356526,41.637636 Z" id="Fill-1" fill="#22317F"></path>
                    <polygon id="Fill-3" fill="#22317F" points="71.453226 28.228866 86.375856 28.228866 86.375856 32.849106 77.007726 32.849106 77.007726 35.097126 85.517496 35.097126 85.517496 39.390306 77.007726 39.390306 77.007726 41.637636 86.653236 41.637636 86.653236 46.257186 71.453226 46.257186"></polygon>
                    <polygon id="Fill-5" fill="#22317F" points="89.234526 28.228866 94.789026 28.228866 94.789026 41.637636 102.768876 41.637636 102.768876 46.257186 89.234526 46.257186"></polygon>
                    <polygon id="Fill-7" fill="#22317F" points="105.147375 28.228866 119.085375 28.228866 119.085375 32.849106 110.701875 32.849106 110.701875 35.097126 117.899955 35.097126 117.899955 39.390306 110.701875 39.390306 110.701875 46.257186 105.147375 46.257186"></polygon>
                    <polygon id="Fill-9" fill="#22317F" points="125.276607 32.848968 120.226497 32.848968 120.226497 28.228728 135.882597 28.228728 135.882597 32.848968 130.830417 32.848968 130.830417 46.257738 125.276607 46.257738"></polygon>
                    <polygon id="Fill-11" fill="#22317F" points="137.93514 28.228866 152.85708 28.228866 152.85708 32.849106 143.48964 32.849106 143.48964 35.097126 151.99872 35.097126 151.99872 39.390306 143.48964 39.390306 143.48964 41.637636 153.13377 41.637636 153.13377 46.257186 137.93514 46.257186"></polygon>
                    <path d="M167.078187,34.945257 C166.977447,34.289067 166.472367,32.294277 164.173287,32.294277 C161.572677,32.294277 160.741227,34.818987 160.741227,37.243647 C160.741227,39.667617 161.572677,42.192327 164.173287,42.192327 C166.043187,42.192327 166.776657,40.879947 167.102337,39.188067 L172.559547,39.188067 C172.559547,42.824367 169.605657,46.686987 164.325777,46.686987 C158.493897,46.686987 155.183967,42.569757 155.183967,37.243647 C155.183967,31.561497 158.771277,27.799617 164.325777,27.799617 C169.277217,27.824457 172.002717,30.425067 172.480887,34.945257 L167.078187,34.945257 Z" id="Fill-13" fill="#22317F"></path>
                    <polygon id="Fill-15" fill="#22317F" points="174.886503 28.228866 180.441003 28.228866 180.441003 34.490616 185.642223 34.490616 185.642223 28.228866 191.197413 28.228866 191.197413 46.257186 185.642223 46.257186 185.642223 39.113616 180.441003 39.113616 180.441003 46.257186 174.886503 46.257186"></polygon>
                    <polygon id="Fill-17" fill="#22317F" points="194.08389 28.228866 199.76328 28.228866 205.01694 37.873686 205.068 37.873686 205.068 28.228866 210.31821 28.228866 210.31821 46.257186 204.91551 46.257186 199.38585 36.409506 199.33341 36.409506 199.33341 46.257186 194.08389 46.257186"></polygon>
                    <polygon id="Fill-19" fill="#22317F" points="213.226836 46.256841 218.781336 46.256841 218.781336 28.228521 213.226836 28.228521"></polygon>
                    <polygon id="Fill-21" fill="#22317F" points="221.640765 28.228866 236.562705 28.228866 236.562705 32.849106 227.195265 32.849106 227.195265 35.097126 235.703655 35.097126 235.703655 39.390306 227.195265 39.390306 227.195265 41.637636 236.839395 41.637636 236.839395 46.257186 221.640765 46.257186"></polygon>
                    <polygon id="Fill-22" fill="#22317F" points="239.571312 28.228866 245.129262 28.228866 245.129262 34.438866 245.180322 34.438866 250.129002 28.228866 256.971732 28.228866 250.430532 35.273076 258.031572 46.257186 251.112942 46.257186 246.669342 39.238506 245.129262 40.930386 245.129262 46.257186 239.571312 46.257186"></polygon>
                    <path d="M16.307805,31.53231 C16.307805,26.97486 20.002065,23.28129 24.558825,23.28129 C29.112825,23.28129 32.807085,26.97486 32.807085,31.53231 C32.807085,36.087 29.112825,39.77988 24.558825,39.77988 C20.002065,39.77988 16.307805,36.087 16.307805,31.53231" id="Fill-23" fill="#E30613"></path>
                    <path d="M24.528879,17.261937 C16.495209,17.261937 9.961599,23.798307 9.961599,31.828527 L9.961599,66.560367 L14.265819,66.560367 L14.265819,42.137127 C16.901619,44.748777 20.530329,46.364067 24.528879,46.364067 C32.562549,46.364067 39.097539,39.859437 39.097539,31.859577 C39.097539,23.810727 32.562549,17.261937 24.528879,17.261937 M24.528879,42.061227 C18.870879,42.061227 14.265819,37.470657 14.265819,31.828527 C14.265819,26.170527 18.870879,21.566157 24.528879,21.566157 C30.188259,21.566157 34.792629,26.183637 34.792629,31.859577 C34.792629,37.484457 30.188259,42.061227 24.528879,42.061227" id="Fill-24" fill="#22317F"></path>
                    <path d="M24.55917,11.23389 C14.51898,11.23389 6.13203,18.46578 4.32354,27.99675 L4.30491,0 L0,0.00276 L0.02967,46.28796 L8.23929,46.28796 L8.26482,31.86006 C8.26482,22.86108 15.57399,15.53949 24.55917,15.53949 C33.5409,15.53949 40.84938,22.86108 40.84938,31.8573 L40.84041,46.30452 L45.14532,46.30935 L45.15429,31.86006 C45.15429,20.48679 35.91519,11.23389 24.55917,11.23389" id="Fill-25" fill="#22317F"></path>
                    <polygon id="Fill-26" fill="#F07F00" points="57.131724 56.533356 57.131724 66.490746 55.383954 66.490746 55.383954 56.533356 52.210644 56.533356 52.210644 54.963606 60.306414 54.963606 60.306414 56.533356"></polygon>
                    <path
                        d="M67.408584,57.14856 C67.004244,56.7111 66.372204,56.43648 65.692554,56.43648 C65.011524,56.43648 64.381554,56.7111 63.975144,57.14856 C63.410034,57.76473 63.296184,58.41195 63.296184,60.72759 C63.296184,63.04254 63.410034,63.68976 63.975144,64.30455 C64.381554,64.7427 65.011524,65.01801 65.692554,65.01801 C66.372204,65.01801 67.004244,64.7427 67.408584,64.30455 C67.975764,63.68976 68.088234,63.04254 68.088234,60.72759 C68.088234,58.41195 67.975764,57.76473 67.408584,57.14856 M68.735454,65.35749 C67.941954,66.15099 66.922824,66.58776 65.692554,66.58776 C64.461594,66.58776 63.457644,66.15099 62.664144,65.35749 C61.531164,64.22451 61.5477106,62.94525 61.5477106,60.72759 C61.5477106,58.50924 61.531164,57.22929 62.664144,56.097 C63.457644,55.30281 64.461594,54.86604 65.692554,54.86604 C66.922824,54.86604 67.941954,55.30281 68.735454,56.097 C69.869814,57.22929 69.837384,58.50924 69.837384,60.72759 C69.837384,62.94525 69.869814,64.22451 68.735454,65.35749"
                        id="Fill-27" fill="#F07F00"></path>
                    <path
                        d="M77.862015,57.14856 C77.457675,56.7111 76.826325,56.43648 76.146675,56.43648 C75.465645,56.43648 74.834985,56.7111 74.429265,57.14856 C73.863465,57.76473 73.749615,58.41195 73.749615,60.72759 C73.749615,63.04254 73.863465,63.68976 74.429265,64.30455 C74.834985,64.7427 75.465645,65.01801 76.146675,65.01801 C76.826325,65.01801 77.457675,64.7427 77.862015,64.30455 C78.427815,63.68976 78.541665,63.04254 78.541665,60.72759 C78.541665,58.41195 78.427815,57.76473 77.862015,57.14856 M79.188885,65.35749 C78.395385,66.15099 77.376255,66.58776 76.146675,66.58776 C74.915025,66.58776 73.911075,66.15099 73.118265,65.35749 C71.984595,64.22451 72.00183,62.94525 72.00183,60.72759 C72.00183,58.50924 71.984595,57.22929 73.118265,56.097 C73.911075,55.30281 74.915025,54.86604 76.146675,54.86604 C77.376255,54.86604 78.395385,55.30281 79.188885,56.097 C80.323245,57.22929 80.291505,58.50924 80.291505,60.72759 C80.291505,62.94525 80.323245,64.22451 79.188885,65.35749"
                        id="Fill-28" fill="#F07F00"></path>
                    <polygon id="Fill-29" fill="#F07F00" points="82.875279 66.49047 82.875279 54.96333 84.624429 54.96333 84.624429 64.92003 90.177549 64.92003 90.177549 66.49047"></polygon>
                    <path
                        d="M95.222898,66.587553 C93.490308,66.587553 92.243478,66.183213 91.142928,65.066103 L92.308338,63.917253 C93.150828,64.758363 94.072668,65.018493 95.255328,65.018493 C96.760908,65.018493 97.635138,64.369203 97.635138,63.252783 C97.635138,62.750463 97.489548,62.328873 97.181808,62.054253 C96.890628,61.778943 96.599448,61.666473 95.919108,61.568493 L94.559118,61.373913 C93.619338,61.245573 92.875518,60.920583 92.373198,60.451383 C91.806708,59.917323 91.531398,59.187993 91.531398,58.250283 C91.531398,56.242383 92.989368,54.866523 95.384358,54.866523 C96.906498,54.866523 97.975308,55.254303 98.963388,56.178213 L97.845588,57.278763 C97.134198,56.597733 96.306888,56.387283 95.336748,56.387283 C93.976068,56.387283 93.230868,57.164913 93.230868,58.184043 C93.230868,58.605633 93.361278,58.979613 93.669018,59.254233 C93.959508,59.512293 94.430088,59.706183 94.963458,59.788293 L96.274458,59.981493 C97.343268,60.144333 97.942878,60.403083 98.428638,60.841233 C99.060678,61.391163 99.367728,62.217093 99.367728,63.204483 C99.367728,65.325543 97.635138,66.587553 95.222898,66.587553"
                        id="Fill-30" fill="#F07F00"></path>
                    <polygon id="Fill-31" fill="#F07F00" points="101.46726 68.999862 101.46726 64.612842 103.34613 64.612842 103.34613 67.461852"></polygon>
                    <path
                        d="M113.055396,66.587553 C111.322806,66.587553 110.075976,66.183213 108.975426,65.066103 L110.140836,63.917253 C110.983326,64.758363 111.905166,65.018493 113.087826,65.018493 C114.593406,65.018493 115.467636,64.369203 115.467636,63.252783 C115.467636,62.750463 115.322046,62.328873 115.014306,62.054253 C114.723126,61.778943 114.431256,61.666473 113.751606,61.568493 L112.391616,61.373913 C111.451836,61.245573 110.708016,60.920583 110.205006,60.451383 C109.639206,59.917323 109.363896,59.187993 109.363896,58.250283 C109.363896,56.242383 110.821866,54.866523 113.216856,54.866523 C114.738996,54.866523 115.807116,55.254303 116.795886,56.178213 L115.678086,57.278763 C114.966696,56.597733 114.139386,56.387283 113.169246,56.387283 C111.808566,56.387283 111.063366,57.164913 111.063366,58.184043 C111.063366,58.605633 111.193776,58.979613 111.501516,59.254233 C111.792006,59.512293 112.262586,59.706183 112.795956,59.788293 L114.106956,59.981493 C115.175766,60.144333 115.775376,60.403083 116.261136,60.841233 C116.893176,61.391163 117.200226,62.217093 117.200226,63.204483 C117.200226,65.325543 115.467636,66.587553 113.055396,66.587553"
                        id="Fill-32" fill="#F07F00"></path>
                    <path d="M123.135882,57.569667 L121.338432,62.686017 L124.885032,62.686017 L123.135882,57.569667 Z M126.164292,66.490677 L125.370792,64.175037 L120.820932,64.175037 L120.027432,66.490677 L118.165122,66.490677 L122.391372,54.963537 L123.799662,54.963537 L128.025912,66.490677 L126.164292,66.490677 Z" id="Fill-33" fill="#F07F00"></path>
                    <polygon id="Fill-34" fill="#F07F00" points="131.404428 56.533356 131.404428 60.047526 136.196478 60.047526 136.196478 61.617276 131.404428 61.617276 131.404428 66.490746 129.655278 66.490746 129.655278 54.963606 137.022408 54.963606 137.022408 56.533356"></polygon>
                    <polygon id="Fill-35" fill="#F07F00" points="139.121733 66.49047 139.121733 54.96333 146.488863 54.96333 146.488863 56.53308 140.870883 56.53308 140.870883 59.90166 145.662933 59.90166 145.662933 61.45554 140.870883 61.45554 140.870883 64.92003 146.488863 64.92003 146.488863 66.49047"></polygon>
                    <polygon id="Fill-36" fill="#F07F00" points="152.780904 56.533356 152.780904 66.490746 151.033134 66.490746 151.033134 56.533356 147.859824 56.533356 147.859824 54.963606 155.955594 54.963606 155.955594 56.533356"></polygon>
                    <polygon id="Fill-37" fill="#F07F00" points="161.71254 61.74672 161.71254 66.49047 159.96477 66.49047 159.96477 61.74672 156.51684 54.96333 158.42607 54.96333 160.83762 60.03069 163.25124 54.96333 165.16116 54.96333"></polygon>
                    <path
                        d="M174.123777,56.306967 C173.412387,56.306967 172.990797,56.792727 172.990797,57.440637 C172.990797,57.909147 173.298537,58.347297 173.880897,59.026257 C174.058917,58.913097 174.431517,58.654347 174.431517,58.654347 C174.885537,58.347297 175.274007,57.990567 175.274007,57.457197 C175.274007,56.808597 174.803427,56.306967 174.123777,56.306967 L174.123777,56.306967 Z M173.412387,60.937557 C172.569897,61.520607 171.857817,62.053977 171.857817,63.124167 C171.857817,64.272327 172.747917,65.082387 173.945757,65.082387 C174.723387,65.082387 175.387857,64.871937 176.148927,64.192287 L173.412387,60.937557 Z M178.075407,66.490677 L177.135627,65.357697 C176.634687,65.794467 175.694907,66.587277 173.945757,66.587277 C171.550767,66.587277 170.222517,65.243847 170.222517,63.156597 C170.222517,61.553037 171.372057,60.645687 172.505037,59.901867 C171.986847,59.302257 171.307197,58.493577 171.307197,57.423387 C171.307197,55.950237 172.408437,54.866247 174.123777,54.866247 C175.759767,54.866247 176.860317,55.967487 176.860317,57.440637 C176.860317,58.347297 176.357997,58.979337 175.630737,59.480967 C175.630737,59.480967 175.062867,59.869437 174.788247,60.062637 L177.217047,62.961327 C177.637257,62.362407 177.815277,61.698627 177.831837,60.645687 L179.418837,60.645687 C179.369847,62.120217 179.046927,63.284937 178.268607,64.192287 L180.195087,66.490677 L178.075407,66.490677 Z"
                        id="Fill-38" fill="#F07F00"></path>
                    <path
                        d="M189.383955,66.587553 C187.651365,66.587553 186.404535,66.183213 185.303985,65.066103 L186.468705,63.917253 C187.311195,64.758363 188.234415,65.018493 189.416385,65.018493 C190.921965,65.018493 191.796195,64.369203 191.796195,63.252783 C191.796195,62.750463 191.649915,62.328873 191.342865,62.054253 C191.051685,61.778943 190.759815,61.666473 190.080855,61.568493 L188.719485,61.373913 C187.781085,61.245573 187.036575,60.920583 186.533565,60.451383 C185.967765,59.917323 185.692455,59.187993 185.692455,58.250283 C185.692455,56.242383 187.149045,54.866523 189.545415,54.866523 C191.066865,54.866523 192.135675,55.254303 193.124445,56.178213 L192.006645,57.278763 C191.293875,56.597733 190.467945,56.387283 189.497805,56.387283 C188.137125,56.387283 187.391235,57.164913 187.391235,58.184043 C187.391235,58.605633 187.522335,58.979613 187.829385,59.254233 C188.120565,59.512293 188.591145,59.706183 189.124515,59.788293 L190.435515,59.981493 C191.504325,60.144333 192.103245,60.403083 192.589695,60.841233 C193.221735,61.391163 193.528785,62.217093 193.528785,63.204483 C193.528785,65.325543 191.796195,66.587553 189.383955,66.587553"
                        id="Fill-39" fill="#F07F00"></path>
                    <path d="M199.820895,66.587553 C197.473515,66.587553 195.693315,64.986063 195.693315,62.604873 L195.693315,54.963123 L197.441085,54.963123 L197.441085,62.524143 C197.441085,64.062153 198.380175,65.018493 199.820895,65.018493 C201.261615,65.018493 202.217955,64.062153 202.217955,62.524143 L202.217955,54.963123 L203.965725,54.963123 L203.965725,62.604873 C203.965725,64.986063 202.168275,66.587553 199.820895,66.587553" id="Fill-40" fill="#F07F00"></path>
                    <path d="M211.067757,56.533356 L208.542357,56.533356 L208.542357,60.371136 L211.067757,60.371136 C212.281467,60.371136 213.108087,59.674236 213.108087,58.459836 C213.108087,57.246126 212.281467,56.533356 211.067757,56.533356 M211.165047,61.956756 L208.542357,61.956756 L208.542357,66.490746 L206.792517,66.490746 L206.792517,54.963606 L211.165047,54.963606 C213.415137,54.963606 214.855857,56.453316 214.855857,58.459836 C214.855857,60.467046 213.415137,61.956756 211.165047,61.956756" id="Fill-41" fill="#F07F00"></path>
                    <path d="M221.246568,56.533356 L218.720478,56.533356 L218.720478,60.371136 L221.246568,60.371136 C222.459588,60.371136 223.286208,59.674236 223.286208,58.459836 C223.286208,57.246126 222.459588,56.533356 221.246568,56.533356 M221.343858,61.956756 L218.720478,61.956756 L218.720478,66.490746 L216.971328,66.490746 L216.971328,54.963606 L221.343858,54.963606 C223.593948,54.963606 225.034668,56.453316 225.034668,58.459836 C225.034668,60.467046 223.593948,61.956756 221.343858,61.956756" id="Fill-42" fill="#F07F00"></path>
                    <polygon id="Fill-43" fill="#F07F00" points="227.148621 66.49047 227.148621 54.96333 228.897771 54.96333 228.897771 64.92003 234.450891 64.92003 234.450891 66.49047"></polygon>
                    <polygon id="Fill-44" fill="#F07F00" points="236.436366 66.490401 238.185516 66.490401 238.185516 54.963261 236.436366 54.963261"></polygon>
                    <polygon id="Fill-45" fill="#F07F00" points="241.193916 66.49047 241.193916 54.96333 248.561046 54.96333 248.561046 56.53308 242.943066 56.53308 242.943066 59.90166 247.735116 59.90166 247.735116 61.45554 242.943066 61.45554 242.943066 64.92003 248.561046 64.92003 248.561046 66.49047"></polygon>
                    <path
                        d="M254.012115,66.587553 C252.279525,66.587553 251.032695,66.183213 249.932145,65.066103 L251.096865,63.917253 C251.939355,64.758363 252.861885,65.018493 254.044545,65.018493 C255.550125,65.018493 256.424355,64.369203 256.424355,63.252783 C256.424355,62.750463 256.278075,62.328873 255.971025,62.054253 C255.679845,61.778943 255.387975,61.666473 254.708325,61.568493 L253.347645,61.373913 C252.408555,61.245573 251.664735,60.920583 251.161725,60.451383 C250.595925,59.917323 250.320615,59.187993 250.320615,58.250283 C250.320615,56.242383 251.778585,54.866523 254.172885,54.866523 C255.695025,54.866523 256.763835,55.254303 257.752605,56.178213 L256.634805,57.278763 C255.923415,56.597733 255.095415,56.387283 254.125965,56.387283 C252.764595,56.387283 252.019395,57.164913 252.019395,58.184043 C252.019395,58.605633 252.150495,58.979613 252.457545,59.254233 C252.748725,59.512293 253.218615,59.706183 253.751985,59.788293 L255.063675,59.981493 C256.131795,60.144333 256.731405,60.403083 257.217855,60.841233 C257.849895,61.391163 258.156945,62.217093 258.156945,63.204483 C258.156945,65.325543 256.424355,66.587553 254.012115,66.587553"
                        id="Fill-46" fill="#F07F00"></path>
                </g>
            </g>
        </g>
    </g>
</svg>
