<svg xmlns="http://www.w3.org/2000/svg" xml:space="preserve" viewBox="0 0 100 80.5"><path fill="#002D6C" d="M80.1 40.199c0 22.119-17.938 40.047-40.047 40.047C17.93 80.246 0 62.318 0 40.199 0 18.079 17.93.146 40.053.146 62.162.146 80.1 18.079 80.1 40.199z"/><path fill="#FFF" d="M48.213 28.136c-5.997 0-10.351 4.861-10.351 11.558v.268c0 6.873 4.146 11.492 10.315 11.492 3.427 0 5.995-1.402 7.591-2.631v-9.896h-7.751v2.541h4.944v5.852l-.187.133c-1.193.842-2.807 1.324-4.428 1.324-4.387 0-7.337-3.584-7.337-8.916v-.201c0-5.088 3.002-8.78 7.138-8.78 2.409 0 3.918.883 5.141 1.912l1.777-2.369c-2.029-1.601-4.101-2.287-6.852-2.287zm11.779 20.282c2.291 1.992 4.945 3.001 7.895 3.001 4.298 0 7.185-2.552 7.185-6.347 0-3.104-1.653-4.868-6.101-6.578-4.052-1.568-5.16-2.531-5.16-4.482 0-1.898 1.593-3.2 3.873-3.2 1.681 0 3.427.683 5.193 2.03l1.696-2.291c-1.936-1.581-4.22-2.382-6.789-2.382-4.132 0-7.019 2.525-7.019 6.144 0 3.627 2.285 5.16 6.501 6.745 3.628 1.339 4.794 2.372 4.794 4.248 0 2.056-1.704 3.47-4.142 3.47-2.673 0-4.663-1.326-6.13-2.596l-1.796 2.238z"/><path fill="#002D6C" d="M83.114 51.338h14.08v-2.785h-5.042V28.082h-2.427l-6.679 2.672.614 2.951 5.172-2.073v16.921h-5.719v2.785zM70.702 7.17v-.024c0-2.137 1.732-3.937 3.914-3.937a3.905 3.905 0 0 1 3.915 3.916v.021c0 2.139-1.731 3.938-3.915 3.938a3.903 3.903 0 0 1-3.914-3.914zm6.989-.024v-.021c0-1.695-1.32-3.09-3.075-3.09-1.734 0-3.072 1.416-3.072 3.111v.019c0 1.699 1.316 3.093 3.072 3.093 1.736 0 3.075-1.415 3.075-3.112zm-4.588-1.974h1.787c.879 0 1.533.399 1.533 1.259 0 .608-.336 1.008-.841 1.178l.966 1.365h-1.112l-.82-1.197h-.588v1.197h-.925V5.172zm1.724 1.848c.42 0 .65-.208.65-.524 0-.335-.253-.523-.65-.523h-.799V7.02h.799z"/><g fill="#FFF"><path d="M8.175 40.199c0-18.268 14.057-33.248 31.946-34.723l-.058-.124h-.01c-19.248 0-34.847 15.603-34.847 34.847 0 19.242 15.599 34.84 34.847 34.84h.01l.058-.125C22.232 73.441 8.175 58.465 8.175 40.199z"/><path d="M15.966 40.199c0-15.338 11.657-27.95 26.598-29.464l-.07-.149c-16.117.281-29.092 13.431-29.092 29.614 0 16.18 12.975 29.324 29.092 29.607l.07-.151c-14.941-1.513-26.598-14.121-26.598-29.457z"/><path d="M23.419 40.197c0-12.522 9.421-22.834 21.562-24.259l-.075-.16c-13.184.36-23.759 11.151-23.759 24.418s10.575 24.055 23.759 24.416l.075-.161C32.84 63.027 23.419 52.719 23.419 40.197z"/><path d="M30.581 40.197c0-9.796 7.345-17.871 16.828-19.033l-.063-.137c-10.36.271-18.672 8.746-18.672 19.169 0 10.422 8.312 18.895 18.672 19.166l.063-.137c-9.484-1.159-16.828-9.232-16.828-19.028z"/></g></svg>