<svg xmlns="http://www.w3.org/2000/svg" viewBox="0 0 179.07 50"><defs><style>.cls-1{fill:#f26322;}.cls-2{fill:#4d4d4d;}</style></defs><title>Asset 2</title><g id="Layer_2" data-name="Layer 2"><g id="Layer_1-2" data-name="Layer 1"><polygon class="cls-1" points="21.43 0 0 12.37 0 37.09 6.12 40.62 6.08 15.91 21.39 7.06 36.7 15.91 36.7 40.61 42.82 37.09 42.82 12.35 21.43 0"/><polygon class="cls-1" points="24.47 40.62 21.41 42.39 18.34 40.63 18.34 15.91 12.22 19.44 12.23 44.15 21.41 49.45 30.59 44.15 30.59 19.44 24.47 15.91 24.47 40.62"/><path class="cls-2" d="M56.84,12.52l8.41,21.26h.07l8.21-21.26h3.2V36.88H74.52V15.66h-.07c-.11.38-.24.77-.37,1.15l-.4,1.06L73.29,19,66.24,36.88h-2L57.11,19c-.14-.32-.27-.66-.41-1s-.26-.73-.37-1.07l-.41-1.19h-.07V36.88H53.74V12.52Z"/><path class="cls-2" d="M83.17,37a5.12,5.12,0,0,1-1.82-.92,4.33,4.33,0,0,1-1.21-1.53,4.83,4.83,0,0,1-.45-2.15,5.06,5.06,0,0,1,.58-2.55,4.51,4.51,0,0,1,1.57-1.59,8.06,8.06,0,0,1,2.3-.9A26.88,26.88,0,0,1,87,26.86c.86-.09,1.6-.18,2.2-.29a6.44,6.44,0,0,0,1.46-.39,1.75,1.75,0,0,0,.82-.63,2,2,0,0,0,.26-1.07v-.34a3.24,3.24,0,0,0-1.09-2.68,5,5,0,0,0-3.14-.86q-4.69,0-4.94,3.91H80.44a5.8,5.8,0,0,1,1.9-4.09,7.48,7.48,0,0,1,5.12-1.53A7.38,7.38,0,0,1,92,20.17a4.92,4.92,0,0,1,1.67,4.17v9.58A1.77,1.77,0,0,0,94,35.06a1.11,1.11,0,0,0,.86.39,1.47,1.47,0,0,0,.36,0,2.89,2.89,0,0,0,.43-.1h.1v1.54a4,4,0,0,1-.58.18,3.4,3.4,0,0,1-.85.09,2.68,2.68,0,0,1-1.84-.6,2.62,2.62,0,0,1-.75-1.89v-.37h-.1a10.13,10.13,0,0,1-.9,1.05,5.88,5.88,0,0,1-1.28,1A7.28,7.28,0,0,1,87.7,37a8.57,8.57,0,0,1-2.25.27A7.91,7.91,0,0,1,83.17,37m5.19-1.86A5.79,5.79,0,0,0,90.22,34a4.8,4.8,0,0,0,1.13-1.62,4.7,4.7,0,0,0,.37-1.82V27.34a7.2,7.2,0,0,1-2.06.73c-.81.17-1.64.32-2.5.43s-1.45.23-2.08.36a5.1,5.1,0,0,0-1.65.59,3,3,0,0,0-1.11,1.11,3.61,3.61,0,0,0-.41,1.82,3.35,3.35,0,0,0,.32,1.54,2.89,2.89,0,0,0,.85,1,3.35,3.35,0,0,0,1.25.53,7.2,7.2,0,0,0,1.5.15,6.45,6.45,0,0,0,2.53-.46"/><path class="cls-2" d="M99.35,41.73a4.69,4.69,0,0,1-2-3.28h2A2.88,2.88,0,0,0,101,40.64a7.38,7.38,0,0,0,3.28.67A5.69,5.69,0,0,0,108.5,40a5,5,0,0,0,1.34-3.69v-2.8h-.1a7.28,7.28,0,0,1-2.28,2.28,6.24,6.24,0,0,1-3.31.79,7.39,7.39,0,0,1-3.13-.65,6.83,6.83,0,0,1-2.38-1.8,8.12,8.12,0,0,1-1.52-2.78,11.51,11.51,0,0,1-.53-3.56A11.09,11.09,0,0,1,97.2,24a8.53,8.53,0,0,1,1.64-2.78,6.87,6.87,0,0,1,2.4-1.7,7.56,7.56,0,0,1,2.91-.58,6.23,6.23,0,0,1,3.38.84A6.93,6.93,0,0,1,109.74,22h.1V19.27h2.08V36.2a6.77,6.77,0,0,1-1.63,4.73,7.77,7.77,0,0,1-5.9,2.12,8.31,8.31,0,0,1-5-1.32m9.23-8.9a8.58,8.58,0,0,0,1.4-5.11,11.19,11.19,0,0,0-.34-2.87,6.32,6.32,0,0,0-1.06-2.23,4.89,4.89,0,0,0-1.79-1.45,5.75,5.75,0,0,0-2.5-.51,4.77,4.77,0,0,0-4.07,1.95,8.41,8.41,0,0,0-1.45,5.17,11.08,11.08,0,0,0,.34,2.78,6.72,6.72,0,0,0,1,2.21,4.83,4.83,0,0,0,1.71,1.47,5.21,5.21,0,0,0,2.42.53,5,5,0,0,0,4.32-1.94"/><path class="cls-2" d="M119.24,36.62a7.09,7.09,0,0,1-2.57-1.94,8.61,8.61,0,0,1-1.58-2.93,11.61,11.61,0,0,1-.55-3.66,11.32,11.32,0,0,1,.58-3.66,9.23,9.23,0,0,1,1.62-2.93,7.17,7.17,0,0,1,2.52-1.94,7.65,7.65,0,0,1,3.32-.7,7.18,7.18,0,0,1,3.56.8,6.57,6.57,0,0,1,2.35,2.15,8.76,8.76,0,0,1,1.28,3.08,16.92,16.92,0,0,1,.38,3.58H116.72a10.57,10.57,0,0,0,.43,2.77,7.08,7.08,0,0,0,1.12,2.23,5.06,5.06,0,0,0,1.86,1.5,5.84,5.84,0,0,0,2.62.55,5,5,0,0,0,3.43-1.08,5.88,5.88,0,0,0,1.72-2.87h2a7.6,7.6,0,0,1-2.38,4.19,7.12,7.12,0,0,1-4.81,1.56,8.37,8.37,0,0,1-3.51-.7m8.32-12.26a6.13,6.13,0,0,0-1-2,4.6,4.6,0,0,0-1.64-1.31,5.33,5.33,0,0,0-2.35-.47,5.64,5.64,0,0,0-2.37.47,5.2,5.2,0,0,0-1.75,1.31,6.43,6.43,0,0,0-1.14,2,9.84,9.84,0,0,0-.56,2.46h11.17a9.51,9.51,0,0,0-.37-2.44"/><path class="cls-2" d="M134.88,19.27V22H135a7.23,7.23,0,0,1,2.33-2.2,6.81,6.81,0,0,1,3.56-.87,5.81,5.81,0,0,1,4,1.42,5.19,5.19,0,0,1,1.58,4.07v12.5h-2.11V24.58a3.75,3.75,0,0,0-1.07-2.95,4.37,4.37,0,0,0-2.95-.93,5.89,5.89,0,0,0-2.11.37,5.63,5.63,0,0,0-1.74,1,4.79,4.79,0,0,0-1.6,3.6V36.88h-2.11V19.27Z"/><path class="cls-2" d="M151.91,36.28a2.93,2.93,0,0,1-.92-2.43V21h-2.66V19.27H151V13.85h2.11v5.42h3.27V21H153.1V33.51a1.67,1.67,0,0,0,.43,1.31,1.94,1.94,0,0,0,1.28.36,3.35,3.35,0,0,0,.76-.09,3.22,3.22,0,0,0,.63-.19h.11v1.81a6,6,0,0,1-1.95.31,3.81,3.81,0,0,1-2.45-.74"/><path class="cls-2" d="M162.63,36.62a7.3,7.3,0,0,1-2.58-1.94,8.67,8.67,0,0,1-1.61-2.93,12,12,0,0,1,0-7.32,8.67,8.67,0,0,1,1.61-2.93,7.3,7.3,0,0,1,2.58-1.94,8.68,8.68,0,0,1,6.83,0A7.28,7.28,0,0,1,172,21.5a8.32,8.32,0,0,1,1.6,2.93,12.45,12.45,0,0,1,0,7.32,8.32,8.32,0,0,1-1.6,2.93,7.28,7.28,0,0,1-2.55,1.94,8.68,8.68,0,0,1-6.83,0m6-1.65a5.24,5.24,0,0,0,1.87-1.6A7.28,7.28,0,0,0,171.64,31a11.55,11.55,0,0,0,0-5.8,7.28,7.28,0,0,0-1.13-2.38,5.24,5.24,0,0,0-1.87-1.6,6.12,6.12,0,0,0-5.2,0,5.42,5.42,0,0,0-1.87,1.6,7.1,7.1,0,0,0-1.14,2.38,11.26,11.26,0,0,0,0,5.8,7.1,7.1,0,0,0,1.14,2.38,5.42,5.42,0,0,0,1.87,1.6,6.12,6.12,0,0,0,5.2,0"/><path class="cls-2" d="M176.86,22.19a2.13,2.13,0,0,1-2.22-2.26,2.16,2.16,0,0,1,2.22-2.28,2.13,2.13,0,0,1,2.21,2.28,2.14,2.14,0,0,1-2.21,2.26m0-4.28a1.86,1.86,0,0,0-1.9,2,1.9,1.9,0,1,0,3.8,0,1.86,1.86,0,0,0-1.9-2m.65,3.23-.75-1.08h-.24v1h-.43V18.59h.76c.52,0,.88.26.88.73a.68.68,0,0,1-.51.69l.72,1ZM176.85,19h-.33v.74h.31c.28,0,.46-.12.46-.37s-.16-.37-.44-.37"/></g></g></svg>