<svg width="155" height="33" viewBox="0 0 155 33" fill="none" xmlns="http://www.w3.org/2000/svg">
<path d="M45.4696 16.6514C44.0526 16.0427 42.8869 15.4909 42.8869 14.5763C42.8869 13.9346 43.6196 13.3259 44.855 13.3259C45.9632 13.3259 46.92 13.6018 47.904 14.0276C48.1826 14.1505 48.6126 14.1805 48.8275 13.7517L49.3211 12.7742C49.5058 12.4083 49.3514 11.9795 49.0123 11.7366C48.3037 11.2778 46.8261 10.6991 44.8519 10.6991C41.4002 10.6991 39.9892 12.7742 39.9892 14.5433C39.9892 16.8613 41.8029 18.0218 43.989 18.9993C45.9601 19.8839 47.0381 20.4926 47.0381 21.4402C47.0381 22.2349 46.3598 22.8136 45.1578 22.8136C43.4622 22.8136 42.4478 22.2349 41.6151 21.7761C41.2457 21.5632 40.8461 21.6531 40.6916 21.959L40.0437 23.2724C39.8893 23.5782 40.074 23.8511 40.2889 24.004C41.0913 24.5528 42.7233 25.4374 44.9731 25.4374C48.1463 25.4374 50.0569 23.5153 50.0569 21.3173C50.0599 18.6965 48.0887 17.7519 45.4696 16.6514Z" fill="#0870FF"/>
<path d="M26.5734 29.3866C25.1262 28.3071 22.9917 27.4855 20.7331 26.6189C18.0446 25.5874 14.9958 24.4149 12.7069 22.6127C10.1153 20.5677 8.85276 17.9888 8.85276 14.7293C8.85276 11.8026 10.0789 9.30177 12.3981 7.49359C14.9988 5.46651 18.9408 4.393 23.7941 4.393C25.1353 4.393 26.416 4.47397 27.6028 4.63589C27.7088 4.65089 27.8087 4.59391 27.8511 4.50095C27.8965 4.405 27.8723 4.29405 27.7935 4.22508C24.7356 1.49932 20.7816 0 16.664 0C12.2134 0 8.02924 1.71522 4.88052 4.8338C1.73483 7.94939 0 12.0935 0 16.4985C0 20.9065 1.7318 25.0506 4.88052 28.1662C8.02622 31.2818 12.2104 33 16.664 33C20.2608 33 23.6851 31.8815 26.5704 29.7675C26.6309 29.7225 26.6673 29.6535 26.6673 29.5786C26.6673 29.5036 26.634 29.4316 26.5734 29.3866Z" fill="#0870FF"/>
<path d="M33.2523 14.9752C33.2462 14.9122 33.2159 14.8522 33.1675 14.8132C29.6918 11.9555 26.8791 10.7891 23.4609 10.7891C21.6383 10.7891 20.2396 11.1519 19.307 11.8656C18.4987 12.4833 18.0718 13.3469 18.0718 14.3574C18.0718 17.1912 21.5687 18.4836 25.6196 19.9799C27.7057 20.7505 29.8644 21.5482 31.8444 22.6367C31.8807 22.6577 31.9201 22.6667 31.9595 22.6667C31.9867 22.6667 32.014 22.6607 32.0412 22.6517C32.1048 22.6277 32.1593 22.5797 32.1835 22.5137C32.9404 20.5946 33.3249 18.5705 33.3249 16.4985C33.3219 16.0127 33.3007 15.4999 33.2523 14.9752Z" fill="#0870FF"/>
<path d="M129.024 25.2665C129.451 25.2185 129.744 24.9097 129.744 24.5258V17.3681C129.744 13.7068 129.293 10.8701 124.533 10.8701C121.799 10.8701 119.677 11.6017 119.419 11.6977C119.065 11.8236 118.841 12.0485 118.938 12.5583L119.229 13.7697C119.326 14.1836 119.613 14.4714 120.064 14.3755C120.836 14.1536 122.508 13.6738 124.213 13.6738C126.078 13.6738 126.656 14.7263 126.592 17.0502C126.592 17.0502 125.145 16.6034 123.601 16.6034C119.774 16.6034 117.651 18.6425 117.651 21.3503C117.651 24.4089 119.61 25.4434 122.408 25.4434C124.691 25.4434 127.041 25.4164 128.019 25.3535L129.024 25.2665ZM126.559 22.6697C126.108 23.4014 124.5 23.2184 123.119 23.1915C121.575 23.1585 120.803 22.6247 120.803 21.3173C120.803 19.788 122.12 18.8974 123.858 18.8974C125.209 18.8974 126.368 19.2812 126.559 19.4072V22.6697Z" fill="#0870FF"/>
<path d="M153.307 10.7021C154.243 10.7021 155 9.95545 155 9.03187C155 8.10829 154.243 7.36163 153.307 7.36163C152.372 7.36163 151.615 8.10829 151.615 9.03187C151.615 9.95545 152.372 10.7021 153.307 10.7021ZM153.307 7.60752C154.092 7.60752 154.733 8.24923 154.733 9.03187C154.733 9.81452 154.095 10.4562 153.307 10.4562C152.523 10.4562 151.884 9.81452 151.884 9.03187C151.884 8.24923 152.523 7.60752 153.307 7.60752Z" fill="#0870FF"/>
<path d="M152.732 9.87728H152.89C152.914 9.87728 152.935 9.85629 152.935 9.8323V9.21764H153.304L153.622 9.84729C153.631 9.86828 153.647 9.87728 153.674 9.87728H153.856C153.898 9.87728 153.913 9.8383 153.898 9.80832L153.565 9.19365C153.777 9.1097 153.925 8.9268 153.925 8.70492C153.925 8.41708 153.686 8.18921 153.395 8.18921H152.732C152.705 8.18921 152.687 8.2102 152.687 8.23418V9.8323C152.687 9.85629 152.705 9.87728 152.732 9.87728ZM152.941 8.42308H153.374C153.532 8.42308 153.671 8.55201 153.671 8.71092C153.671 8.87883 153.532 9.01076 153.374 9.01076H152.941V8.42308Z" fill="#0870FF"/>
<path d="M59.5251 10.7021C57.2753 10.7021 55.7341 11.9226 55.3981 12.1685V5.87433C55.3981 5.53848 55.0589 5.20264 54.7198 5.20264H52.9939C52.6245 5.20264 52.3157 5.53848 52.3157 5.87433V24.7687C52.3157 25.1346 52.6245 25.4404 52.9939 25.4404H54.6895C55.1225 25.4404 55.3981 25.1646 55.3981 24.7687V15.6469C55.7069 15.0382 56.9392 13.6018 59.1254 13.6018C60.9754 13.6018 61.9595 14.9752 61.9595 17.2931V24.7717C61.9595 25.1376 62.2683 25.4434 62.6377 25.4434H64.3636C64.7027 25.4434 65.0418 25.1376 65.0418 24.7717V17.3561C65.0388 13.5119 63.5612 10.7021 59.5251 10.7021Z" fill="#0870FF"/>
<path d="M95.6082 17.5031C95.4386 12.7142 93.413 10.7021 88.747 10.7021C86.5064 10.7021 83.8328 11.3678 83.4392 11.5388C82.9547 11.7457 82.5974 11.9916 82.5974 12.3274V12.6063V13.6288V16.9393V17.3891V30.2683C82.5974 30.6341 82.9063 30.9399 83.2757 30.9399H84.7048C85.1681 30.9399 85.4436 30.6641 85.4436 30.2683L85.4406 25.1976C85.8736 25.3085 88.087 25.4944 89.934 25.4374C93.2283 25.3355 95.4386 22.9666 95.6233 18.9664C95.6506 18.4236 95.6082 17.5031 95.6082 17.5031ZM92.6318 18.9634C92.5682 21.6772 91.7719 22.8766 89.4646 23.0026C88.3231 23.0655 85.6283 22.7507 85.6283 22.7507C85.5163 22.7147 85.4406 22.6667 85.4406 22.5648L85.4376 17.0653V13.9467C85.4376 13.8627 85.5012 13.7937 85.5859 13.7847C85.9039 13.7518 87.0696 13.3799 88.747 13.3799C91.5569 13.3799 92.547 13.7877 92.6379 17.3111C92.6439 17.7759 92.6469 18.4266 92.6318 18.9634Z" fill="#0870FF"/>
<path d="M116.019 11.008H114.726C114.357 11.008 113.833 11.008 113.648 11.4368L111.368 19.5511H111.308L107.487 11.038C107.426 10.8551 107.208 10.7021 106.872 10.7021H106.657C106.378 10.7021 106.163 10.8551 106.073 11.038L102.218 19.5211H102.158L99.817 11.4368C99.7565 11.1609 99.4476 11.008 99.2024 11.008H97.3523C96.8588 11.008 96.6438 11.3738 96.8588 11.8026L101.019 25.0746C101.08 25.2875 101.298 25.4404 101.603 25.4404H101.788C102.097 25.4404 102.282 25.2875 102.342 25.1046L106.718 15.524H106.778L111.123 25.1046C111.217 25.2875 111.432 25.4404 111.738 25.4404H111.862C112.171 25.4404 112.446 25.2875 112.51 25.0746L116.576 11.8026C116.791 11.3738 116.513 11.008 116.019 11.008Z" fill="#0870FF"/>
<path d="M138.746 10.8701C138.671 10.8701 138.601 10.8761 138.525 10.8791C138.401 10.8761 138.28 10.8701 138.15 10.8701C137.411 10.8701 136.703 10.894 136.04 10.927C134.762 10.978 134.005 11.074 133.466 11.1339C133.466 11.1339 133.121 11.1669 132.718 11.2179C132.448 11.2509 132.252 11.3618 132.131 11.5148C132.049 11.6017 131.997 11.7127 131.997 11.8476V11.8956V12.1745V13.197V16.0337V24.7657C131.997 25.1316 132.306 25.4374 132.676 25.4374H134.093C134.677 25.4374 135.08 25.3775 135.08 24.7657V16.0337V14.0306C135.08 13.9467 135.213 13.8417 135.286 13.7967C135.634 13.5898 136.469 13.4399 138.15 13.4399C138.313 13.4399 138.419 13.4429 138.541 13.4459C138.925 13.4819 139.534 13.5988 139.731 13.7098C140.039 13.8627 140.409 13.7697 140.593 13.3739L141.332 12.1775C141.796 11.2359 140.103 10.8701 138.746 10.8701Z" fill="#0870FF"/>
<path d="M148.499 10.7021C144.218 10.7021 141.414 14.0906 141.414 18.0548C141.414 22.082 144.218 25.4374 148.529 25.4374C150.9 25.4374 152.78 24.5828 153.798 23.6982C154.228 23.3324 154.107 23.0565 153.858 22.7537L153.026 21.4733C152.78 21.1074 152.502 21.1974 152.193 21.4133C151.33 22.022 150.343 22.6037 148.711 22.6037C146.216 22.6037 144.49 20.6516 144.46 18.7595H154.288C154.597 18.7595 154.903 18.5136 154.936 18.1478C154.967 17.9049 154.997 17.4161 154.997 17.1702C154.997 13.4189 152.196 10.7021 148.499 10.7021ZM144.617 16.4985C144.832 14.7293 146.189 13.296 148.438 13.296C150.534 13.296 151.89 14.7923 151.951 16.4985H144.617V16.4985Z" fill="#0870FF"/>
<path d="M80.1296 15.0621C79.8086 14.1535 79.3575 13.3739 78.7792 12.7262C78.2008 12.0785 77.5075 11.5777 76.7051 11.2269C75.9027 10.876 74.7642 10.6991 73.8195 10.6991C72.8748 10.6991 71.7394 10.876 70.937 11.2269C70.1346 11.5777 69.4442 12.0785 68.8629 12.7262C68.2845 13.3739 67.8334 14.1535 67.5124 15.0621C67.1915 15.9707 67.031 16.9752 67.031 18.0727C67.031 19.1882 67.1915 20.1958 67.5124 21.0954C67.8334 21.995 68.2845 22.7686 68.8629 23.4163C69.4412 24.064 70.1346 24.5648 70.937 24.9156C71.7394 25.2665 72.8748 25.4404 73.8195 25.4404C74.7642 25.4404 75.9027 25.2665 76.7051 24.9156C77.5075 24.5648 78.1978 24.064 78.7792 23.4163C79.3575 22.7686 79.8086 21.995 80.1296 21.0954C80.4506 20.1958 80.611 19.1882 80.611 18.0727C80.611 16.9752 80.4506 15.9707 80.1296 15.0621ZM73.7408 23.0115C71.1701 23.0115 69.8742 20.8555 69.8742 18.1957C69.8742 15.5359 71.1671 13.3799 73.7408 13.3799C76.3145 13.3799 77.6074 15.5359 77.6074 18.1957C77.6074 20.8555 76.3114 23.0115 73.7408 23.0115Z" fill="#0870FF"/>
</svg>
